<svg height="402pt" viewBox="-13 0 402 402.77333" width="402pt" xmlns="http://www.w3.org/2000/svg"><path d="m61.828125 402.773438c-11.292969 0-20.480469-9.1875-20.480469-20.480469v-320.851563c0-3.773437 3.050782-6.828125 6.824219-6.828125s6.828125 3.054688 6.828125 6.828125v320.851563c0 3.765625 3.058594 6.828125 6.828125 6.828125 3.765625 0 6.824219-3.0625 6.824219-6.828125v-320.851563c0-3.773437 3.054687-6.828125 6.828125-6.828125 3.773437 0 6.828125 3.054688 6.828125 6.828125v320.851563c0 11.292969-9.1875 20.480469-20.480469 20.480469zm0 0"/><path d="m61.828125 68.265625c-18.820313 0-34.136719-15.3125-34.136719-34.132813 0-18.820312 15.316406-34.132812 34.136719-34.132812 18.816406 0 34.132813 15.3125 34.132813 34.132812 0 18.820313-15.316407 34.132813-34.132813 34.132813zm0-54.613281c-11.292969 0-20.480469 9.1875-20.480469 20.480468 0 11.292969 9.1875 20.480469 20.480469 20.480469s20.480469-9.1875 20.480469-20.480469c0-11.292968-9.1875-20.480468-20.480469-20.480468zm0 0"/><path d="m188.632812 283.738281c-9.039062 0-18.804687-.964843-30.632812-3.023437l-83.691406-14.574219c-3.269532-.574219-5.65625-3.40625-5.65625-6.726563v-177.492187c0-2.03125.902344-3.949219 2.460937-5.25 1.550781-1.292969 3.585938-1.824219 5.597657-1.464844l77.394531 14.214844c11.558593 2.113281 21.0625 3.414063 29.488281 3.078125 18.050781-.039062 35.871094-3.003906 52.953125-8.820312l1.597656-.539063c31.046875-10.566406 97.347657-14.652344 131.335938-8.078125l.824219.152344c2.054687.394531 3.820312 1.707031 4.78125 3.566406.964843 1.863281 1.019531 4.0625.152343 5.96875l-33.019531 72.652344 33.28125 99.855468c.785156 2.339844.238281 4.917969-1.421875 6.75-1.652344 1.820313-4.179687 2.601563-6.578125 2.0625-27.960938-6.429687-87.167969-3.660156-113.128906 5.273438l-7.652344 2.640625c-18.5 6.371094-37.785156 9.652344-57.339844 9.757813-.246094-.003907-.492187-.003907-.746094-.003907zm-106.324218-30.066406 78.039062 13.589844c11.328125 1.980469 20.621094 2.972656 28.960938 2.824219 18.058594-.09375 35.878906-3.125 52.964844-9.011719l7.652343-2.640625c25.535157-8.792969 76.253907-12.035156 109.007813-7.714844l-30.511719-91.546875c-.546875-1.632813-.457031-3.414063.257813-4.988281l30.433593-66.945313c-33.433593-4.261719-89.980469-.234375-116.585937 8.828125l-1.59375.539063c-18.480469 6.292969-37.769532 9.503906-57.3125 9.546875-.082032 0-.160156 0-.242188 0-9.347656 0-19.441406-1.054688-31.742187-3.308594l-69.328125-12.730469zm0 0"/><path d="m161.222656 146.359375c-3.996094-4-10.480468-4-14.480468 0s-4 10.480469 0 14.480469 10.484374 4 14.480468 0c4-4 4-10.480469 0-14.480469zm0 0"/><path d="m284.101562 146.359375c-3.996093-4-10.480468-4-14.480468 0-3.996094 4-3.996094 10.484375 0 14.480469 4 4 10.484375 4 14.480468 0 4-3.996094 4-10.480469 0-14.480469zm0 0"/><path d="m266.625 192.351562c-.105469-10.710937-95.460938-10.710937-95.570312 0v.230469c0 18.054688 21.394531 32.699219 47.785156 32.699219 26.394531 0 47.789062-14.644531 47.789062-32.699219 0-.078125-.003906-.152343-.003906-.230469zm-48.933594 19.273438c-11.3125 0-20.480468-3.054688-20.480468-6.824219s9.167968-6.828125 20.480468-6.828125c11.308594 0 20.476563 3.058594 20.476563 6.828125s-9.167969 6.824219-20.476563 6.824219zm0 0"/><path d="m212.011719 402.773438h-204.796875c-3.773438 0-6.828125-3.054688-6.828125-6.828126 0-3.773437 3.054687-6.824218 6.828125-6.824218h204.796875c3.773437 0 6.828125 3.050781 6.828125 6.824218 0 3.773438-3.054688 6.828126-6.828125 6.828126zm0 0"/></svg>