<svg height="414pt" viewBox="-13 0 414 414.71122" width="414pt" xmlns="http://www.w3.org/2000/svg"><path d="m171.023438 414.710938c-95.699219 0-170.667969-29.984376-170.667969-68.265626 0-30.125 45.390625-55.554687 115.632812-64.773437 3.722657-.527344 7.164063 2.140625 7.660157 5.878906.488281 3.734375-2.144532 7.167969-5.878907 7.652344-60.125 7.894531-103.761719 29.449219-103.761719 51.238281 0 25.835938 64.484376 54.613282 157.015626 54.613282 92.527343 0 157.011718-28.777344 157.011718-54.613282 0-25.832031-64.484375-54.613281-157.011718-54.613281-6.578126 0-13.0625.148437-19.429688.433594-3.78125.25-6.953125-2.738281-7.128906-6.511719-.171875-3.765625 2.742187-6.953125 6.507812-7.125 6.574219-.300781 13.265625-.449219 20.046875-.449219 95.699219 0 170.667969 29.988281 170.667969 68.265625 0 38.28125-74.964844 68.269532-170.664062 68.269532zm0 0"/><path d="m129.109375 223.566406c-2.980469 0-5.71875-1.960937-6.570313-4.976562l-33.765624-119.480469c-1.023438-3.625 1.089843-7.398437 4.714843-8.417969 3.640625-1.039062 7.402344 1.078125 8.425781 4.710938l33.769532 119.480468c1.023437 3.628907-1.089844 7.402344-4.714844 8.421876-.621094.179687-1.246094.261718-1.859375.261718zm0 0"/><path d="m144.222656 377.457031c-2.976562 0-5.714844-1.957031-6.566406-4.972656l-88.746094-314.027344c-.492187-1.738281-.273437-3.605469.613282-5.183593.882812-1.582032 2.359374-2.746094 4.101562-3.242188l26.28125-7.414062c3.644531-1.011719 7.398438 1.09375 8.421875 4.722656l7.109375 25.160156c1.027344 3.625-1.085938 7.398438-4.710938 8.417969-3.621093 1.054687-7.402343-1.070313-8.429687-4.710938l-5.25-18.59375-13.136719 3.707031 85.03125 300.890626 13.140625-3.707032-30.515625-107.972656c-1.023437-3.625 1.089844-7.398438 4.714844-8.421875 3.632812-1.03125 7.40625 1.082031 8.425781 4.714844l32.371094 114.539062c.496094 1.742188.273437 3.605469-.613281 5.1875-.882813 1.582031-2.359375 2.746094-4.101563 3.238281l-26.277343 7.414063c-.625.175781-1.246094.253906-1.863282.253906zm0 0"/><path d="m128.222656 251.539062c-10.914062 0-18.296875-.613281-19.234375-.695312-2.644531-.226562-4.914062-1.972656-5.820312-4.464844-.910157-2.492187-.292969-5.285156 1.585937-7.160156 33.542969-33.546875 47-63.460938 39.988282-88.90625-12.316407-44.710938-83.898438-63.308594-84.617188-63.484375-3.253906-.828125-5.425781-3.886719-5.128906-7.234375.300781-3.339844 2.984375-5.964844 6.332031-6.199219 1.007813-.066406 101.039063-7.292969 145.460937-42.828125 48.386719-38.707031 114.378907-29.808594 117.167969-29.414062 2.558594.367187 4.691407 2.148437 5.511719 4.601562.410156 1.234375 9.933594 30.484375 0 60.292969-6.773438 20.3125-15.367188 34.398437-20.058594 41.191406 4.265625 3.378907 15.449219 9.753907 42.90625 15.25 17.011719 3.40625 28.382813 10.738281 33.792969 21.796875 7.945313 16.253906-.671875 33.855469-1.039063 34.59375-1.316406 2.621094-4.148437 4.113282-7.074218 3.707032-64.589844-9.238282-119.152344 19.5625-153.519532 45.339843-27.167968 20.378907-71.101562 23.613281-96.253906 23.613281zm-3.34375-13.726562c22.71875.339844 66.367188-2.035156 91.402344-20.808594 35.472656-26.605468 91.320312-56.230468 158.1875-48.636718 1.316406-4.519532 2.492188-11.773438-.660156-18.15625-3.464844-7-11.59375-11.820313-24.171875-14.339844-47.039063-9.40625-54.34375-22.617188-55.460938-26.445313-.632812-2.160156-.148437-4.507812 1.28125-6.253906.125-.144531 12.300781-15.179687 21.058594-41.445313 6.457031-19.367187 3.105469-39.105468 1.121094-47.492187-15.019531-1.1875-65.355469-2.582031-102.320313 27-32.234375 25.777344-88.71875 37.484375-123.355468 42.457031 24.4375 10.734375 57.019531 30.667969 65.933593 62.957032 7.59375 27.496093-3.511719 58.117187-33.015625 91.164062zm0 0"/><path d="m198.328125 114.335938c-1.746094 0-3.492187-.664063-4.824219-2l-20.480468-20.476563c-2.667969-2.667969-2.667969-6.988281 0-9.65625 2.664062-2.664063 6.984374-2.664063 9.652343 0l20.480469 20.480469c2.664062 2.667968 2.664062 6.988281 0 9.652344-1.335938 1.335937-3.082031 2-4.828125 2zm0 0"/><path d="m177.847656 114.335938c-1.746094 0-3.492187-.664063-4.824218-2-2.667969-2.664063-2.667969-6.984376 0-9.652344l20.480468-20.480469c2.664063-2.664063 6.984375-2.664063 9.652344 0 2.664062 2.667969 2.664062 6.988281 0 9.65625l-20.480469 20.476563c-1.335937 1.335937-3.082031 2-4.828125 2zm0 0"/><path d="m259.769531 93.859375c-1.746093 0-3.492187-.667969-4.828125-2l-20.480468-20.480469c-2.664063-2.667968-2.664063-6.988281 0-9.652344 2.667968-2.667968 6.988281-2.667968 9.65625 0l20.476562 20.476563c2.667969 2.667969 2.667969 6.988281 0 9.65625-1.332031 1.332031-3.078125 2-4.824219 2zm0 0"/><path d="m239.289062 93.859375c-1.746093 0-3.492187-.667969-4.828124-2-2.664063-2.667969-2.664063-6.988281 0-9.65625l20.480468-20.476563c2.667969-2.667968 6.988282-2.667968 9.652344 0 2.667969 2.664063 2.667969 6.984376 0 9.652344l-20.476562 20.480469c-1.335938 1.332031-3.082032 2-4.828126 2zm0 0"/><path d="m205.148438 182.605469c-1.375 0-2.757813-.414063-3.960938-1.273438-3.070312-2.1875-3.777344-6.453125-1.589844-9.519531 36.832032-51.554688 74.765625-37.132812 76.359375-36.507812 3.5 1.398437 5.203125 5.371093 3.804688 8.871093-1.390625 3.488281-5.324219 5.203125-8.824219 3.828125-1.347656-.5-30.023438-10.539062-60.226562 31.742188-1.332032 1.863281-3.433594 2.859375-5.5625 2.859375zm0 0"/></svg>