<?xml version="1.0" encoding="iso-8859-1"?>
<!-- Generator: Adobe Illustrator 17.1.0, SVG Export Plug-In . SVG Version: 6.00 Build 0)  -->
<!DOCTYPE svg PUBLIC "-//W3C//DTD SVG 1.1//EN" "http://www.w3.org/Graphics/SVG/1.1/DTD/svg11.dtd">
<svg version="1.1" id="Capa_1" xmlns="http://www.w3.org/2000/svg" xmlns:xlink="http://www.w3.org/1999/xlink" x="0px" y="0px"
	 viewBox="0 0 486.104 486.104" style="enable-background:new 0 0 486.104 486.104;" xml:space="preserve">
<path d="M414.954,203.056c-0.636-1.569-2.022-2.71-3.686-3.032c-0.554-0.107-54.224-10.818-91.619-45.956l87.023-98.832
	c1.58-1.794,1.666-4.455,0.209-6.351c-1.457-1.895-4.056-2.493-6.194-1.427c-0.333,0.166-33.817,16.551-83.102,16.551
	c-26.849,0-54.095-8.297-63.267-11.37V30.596c0-0.84-0.183-8.428-6.492-15.999C239.754,4.911,225.901,0,206.653,0
	c-49.893,0-89.637,16.33-104.204,23.23c-0.904-0.899-2.149-1.456-3.525-1.456H75.785c-2.761,0-5,2.239-5,5v454.33
	c0,2.761,2.239,5,5,5h23.138c2.761,0,5-2.239,5-5V213.051c11.875-5.113,58.429-23.852,102.729-23.852
	c1.219,0,2.392,0.025,3.534,0.067v54.672c0,0.267,0.029,0.53,0.07,0.79c0.009,0.054,0.016,0.108,0.027,0.161
	c0.053,0.272,0.128,0.538,0.224,0.796c0.018,0.047,0.037,0.093,0.056,0.14c0.107,0.261,0.231,0.514,0.38,0.754
	c0.017,0.028,0.037,0.053,0.055,0.081c0.155,0.239,0.328,0.466,0.523,0.677c0.011,0.012,0.02,0.025,0.032,0.037
	c0.129,0.136,0.265,0.266,0.41,0.388c0.052,0.044,0.111,0.074,0.164,0.115c0.11,0.086,0.225,0.164,0.343,0.241
	c0.148,0.096,0.299,0.183,0.455,0.263c0.118,0.06,0.236,0.117,0.36,0.168c0.184,0.076,0.373,0.135,0.564,0.189
	c0.079,0.022,0.15,0.059,0.231,0.077c1.655,0.375,32.395,7.208,69.818,7.207c11.055,0,22.695-0.596,34.338-2.131
	c69.649-9.182,95.128-44.589,96.178-46.092C415.387,206.41,415.589,204.625,414.954,203.056z M80.785,476.104v-261.31h13.138v261.31
	H80.785z M244.319,209.847c0.002,0.186,0.038,0.362,0.06,0.543c0.017,0.144,0.019,0.292,0.048,0.432
	c0.038,0.184,0.107,0.354,0.164,0.53l-0.021,0.007c0,0-0.036-0.081-0.07-0.243c0.015,0.071,1.346,7.206-12.094,18.681
	c-4.342,3.708-8.813,6.002-12.22,7.374v-46.879C243.51,194.43,244.296,209.027,244.319,209.847z M316.932,243.976
	c-32.253,4.253-65.216,0.875-84.264-1.994c2.044-1.287,4.147-2.8,6.231-4.579c16.367-13.975,16.056-24.745,15.42-28.152V107.392
	c0-2.761-2.238-5-5-5s-5,2.239-5,5v82.821c-8.326-7.309-20.961-11.014-37.667-11.014c-42.703,0-86.019,16.047-102.729,22.975V71.62
	c0-2.761-2.239-5-5-5s-5,2.239-5,5v133.175H80.785V31.775h13.138v9.826c0,2.761,2.239,5,5,5s5-2.239,5-5v-7.952
	C114.358,28.487,155.319,10,206.653,10c36.718,0,37.645,19.813,37.667,20.596v42.673c0,2.761,2.238,5,5,5s5-2.239,5-5v-10.09
	c11.812,3.777,37.345,10.831,63.267,10.831c29.202,0,52.86-5.37,68.198-10.183L309,151.03c-1.738,1.975-1.649,4.958,0.204,6.826
	c31.185,31.424,73.854,45.301,91.776,50.011C390.817,217.812,365.106,237.625,316.932,243.976z"/>
<g>
</g>
<g>
</g>
<g>
</g>
<g>
</g>
<g>
</g>
<g>
</g>
<g>
</g>
<g>
</g>
<g>
</g>
<g>
</g>
<g>
</g>
<g>
</g>
<g>
</g>
<g>
</g>
<g>
</g>
</svg>
